<?xml version="1.0" encoding="UTF-8"?>
<svg xmlns="http://www.w3.org/2000/svg" viewBox="0 0 100 100" width="100px" height="100px">
<g id="surface32920857">
<path style=" stroke:none;fill-rule:nonzero;fill:rgb(90.196079%,49.411765%,13.333334%);fill-opacity:1;" d="M 50 15 C 30.671875 15 15 30.671875 15 50 C 15 69.328125 30.671875 85 50 85 C 69.328125 85 85 69.328125 85 50 C 85 30.671875 69.328125 15 50 15 Z M 50 15 "/>
<path style=" stroke:none;fill-rule:nonzero;fill:rgb(12.156863%,12.941177%,16.862746%);fill-opacity:1;" d="M 77.238281 64.039062 C 77.164062 64.039062 77.089844 64.023438 77.019531 63.988281 C 76.769531 63.867188 76.664062 63.566406 76.789062 63.320312 C 76.984375 62.910156 77.175781 62.5 77.355469 62.085938 C 78.046875 60.476562 78.601562 58.789062 78.996094 57.074219 C 79.058594 56.804688 79.324219 56.636719 79.597656 56.699219 C 79.867188 56.761719 80.035156 57.027344 79.972656 57.296875 C 79.5625 59.070312 78.992188 60.816406 78.273438 62.484375 C 78.089844 62.910156 77.894531 63.335938 77.6875 63.757812 C 77.601562 63.9375 77.421875 64.039062 77.238281 64.039062 Z M 80.382812 53.394531 C 80.367188 53.394531 80.351562 53.394531 80.339844 53.390625 C 80.0625 53.367188 79.859375 53.125 79.882812 52.851562 C 79.941406 52.203125 79.980469 51.554688 79.996094 50.90625 C 80.097656 46.882812 79.40625 42.945312 77.945312 39.203125 C 77.84375 38.945312 77.96875 38.65625 78.226562 38.554688 C 78.484375 38.453125 78.773438 38.582031 78.875 38.839844 C 80.386719 42.703125 81.097656 46.773438 80.992188 50.933594 C 80.976562 51.601562 80.9375 52.273438 80.878906 52.9375 C 80.855469 53.199219 80.640625 53.394531 80.382812 53.394531 Z M 27.734375 29.726562 C 27.613281 29.726562 27.488281 29.683594 27.394531 29.59375 C 27.191406 29.40625 27.183594 29.089844 27.371094 28.886719 C 32.417969 23.476562 39.253906 20.0625 46.609375 19.269531 C 46.886719 19.246094 47.128906 19.4375 47.160156 19.710938 C 47.1875 19.984375 46.988281 20.230469 46.714844 20.261719 C 39.597656 21.03125 32.988281 24.335938 28.101562 29.566406 C 28.003906 29.675781 27.867188 29.726562 27.734375 29.726562 Z M 29.277344 72.785156 C 29.15625 72.785156 29.03125 72.738281 28.9375 72.648438 C 18.382812 62.796875 15.980469 47.1875 23.09375 34.695312 C 23.226562 34.453125 23.53125 34.367188 23.773438 34.507812 C 24.015625 34.644531 24.097656 34.949219 23.960938 35.1875 C 17.078125 47.277344 19.40625 62.382812 29.621094 71.917969 C 29.820312 72.105469 29.832031 72.421875 29.644531 72.625 C 29.546875 72.730469 29.410156 72.785156 29.277344 72.785156 Z M 63.347656 78 C 63.160156 78 62.984375 77.898438 62.898438 77.71875 C 62.777344 77.46875 62.882812 77.171875 63.132812 77.050781 C 66.453125 75.449219 69.429688 73.253906 71.972656 70.53125 C 73 69.433594 73.949219 68.253906 74.789062 67.023438 C 74.945312 66.796875 75.257812 66.738281 75.484375 66.894531 C 75.714844 67.050781 75.769531 67.359375 75.613281 67.589844 C 74.742188 68.859375 73.765625 70.078125 72.703125 71.214844 C 70.074219 74.027344 67.003906 76.292969 63.5625 77.949219 C 63.496094 77.984375 63.421875 78 63.347656 78 Z M 63.347656 78 "/>
<path style=" stroke:none;fill-rule:nonzero;fill:rgb(99.607843%,99.215686%,93.725491%);fill-opacity:1;" d="M 44.5 84 L 44.5 59.5 L 35.5 59.5 L 35.5 50.5 L 44.5 50.5 L 44.5 41.527344 C 44.304688 33.480469 50.398438 25.648438 64.5 29.992188 L 64.472656 38.5 L 59.570312 38.46875 C 55.800781 38.46875 54.5 39.714844 54.5 42.429688 L 54.5 50.5 L 65.277344 50.5 L 63.382812 59.5 L 54.5 59.5 L 54.5 84 "/>
<path style=" stroke:none;fill-rule:nonzero;fill:rgb(12.156863%,12.941177%,16.862746%);fill-opacity:1;" d="M 55 84 L 54 84 L 54 59 L 62.976562 59 L 64.660156 51 L 54 51 L 54 42.429688 C 54 39.300781 55.664062 37.96875 59.570312 37.96875 L 63.972656 37.996094 L 63.996094 30.363281 C 57.859375 28.546875 52.804688 28.964844 49.355469 31.574219 C 46.488281 33.746094 44.898438 37.371094 45 41.515625 L 45 51 L 36 51 L 36 59 L 45 59 L 45 84 L 44 84 L 44 60 L 35 60 L 35 50 L 44 50 L 44 41.527344 C 43.890625 37.070312 45.625 33.148438 48.753906 30.777344 C 51.390625 28.78125 56.285156 26.941406 64.644531 29.511719 L 65 29.621094 L 64.96875 39.003906 L 59.566406 38.96875 C 55.765625 38.96875 55 40.292969 55 42.429688 L 55 50 L 65.890625 50 L 63.789062 60 L 55 60 Z M 55 84 "/>
<path style=" stroke:none;fill-rule:nonzero;fill:rgb(12.156863%,12.941177%,16.862746%);fill-opacity:1;" d="M 50 86 C 30.148438 86 14 69.851562 14 50 C 14 30.148438 30.148438 14 50 14 C 69.851562 14 86 30.148438 86 50 C 86 69.851562 69.851562 86 50 86 Z M 50 16 C 31.253906 16 16 31.253906 16 50 C 16 68.746094 31.253906 84 50 84 C 68.746094 84 84 68.746094 84 50 C 84 31.253906 68.746094 16 50 16 Z M 50 16 "/>
</g>
</svg>
