<?xml version="1.0" encoding="UTF-8"?>
<svg xmlns="http://www.w3.org/2000/svg" viewBox="0 0 100 100" width="100px" height="100px">
<g id="surface32881355">
<path style=" stroke:none;fill-rule:nonzero;fill:rgb(90.196079%,49.411765%,13.333334%);fill-opacity:1;" d="M 69.960938 81.652344 L 30.960938 81.652344 C 24.359375 81.652344 18.960938 76.253906 18.960938 69.652344 L 18.960938 30.652344 C 18.960938 24.054688 24.359375 18.652344 30.960938 18.652344 L 69.960938 18.652344 C 76.5625 18.652344 81.960938 24.054688 81.960938 30.652344 L 81.960938 69.652344 C 81.960938 76.253906 76.5625 81.652344 69.960938 81.652344 Z M 69.960938 81.652344 "/>
<path style=" stroke:none;fill-rule:nonzero;fill:rgb(12.156863%,12.941177%,16.862746%);fill-opacity:1;" d="M 69.960938 82.652344 L 30.960938 82.652344 C 23.792969 82.652344 17.960938 76.820312 17.960938 69.652344 L 17.960938 30.652344 C 17.960938 23.484375 23.792969 17.652344 30.960938 17.652344 L 69.960938 17.652344 C 77.128906 17.652344 82.960938 23.484375 82.960938 30.652344 L 82.960938 69.652344 C 82.960938 76.820312 77.128906 82.652344 69.960938 82.652344 Z M 30.960938 19.652344 C 24.894531 19.652344 19.960938 24.589844 19.960938 30.652344 L 19.960938 69.652344 C 19.960938 75.71875 24.894531 80.652344 30.960938 80.652344 L 69.960938 80.652344 C 76.027344 80.652344 80.960938 75.71875 80.960938 69.652344 L 80.960938 30.652344 C 80.960938 24.589844 76.027344 19.652344 69.960938 19.652344 Z M 30.960938 19.652344 "/>
<path style=" stroke:none;fill-rule:nonzero;fill:rgb(90.196079%,49.411765%,13.333334%);fill-opacity:1;" d="M 77.460938 48.152344 L 77.460938 66.816406 C 77.460938 72.503906 72.808594 77.152344 67.125 77.152344 L 33.796875 77.152344 C 28.113281 77.152344 23.460938 72.503906 23.460938 66.816406 L 23.460938 33.492188 C 23.460938 27.804688 28.113281 23.152344 33.796875 23.152344 L 67.460938 23.152344 "/>
<path style=" stroke:none;fill-rule:nonzero;fill:rgb(12.156863%,12.941177%,16.862746%);fill-opacity:1;" d="M 67.125 77.652344 L 33.796875 77.652344 C 27.820312 77.652344 22.960938 72.792969 22.960938 66.816406 L 22.960938 33.488281 C 22.960938 27.515625 27.820312 22.652344 33.796875 22.652344 L 67.460938 22.652344 C 67.738281 22.652344 67.960938 22.878906 67.960938 23.152344 C 67.960938 23.429688 67.738281 23.652344 67.460938 23.652344 L 33.796875 23.652344 C 28.375 23.652344 23.960938 28.066406 23.960938 33.488281 L 23.960938 66.816406 C 23.960938 72.238281 28.375 76.652344 33.796875 76.652344 L 67.125 76.652344 C 72.546875 76.652344 76.960938 72.238281 76.960938 66.816406 L 76.960938 48.152344 C 76.960938 47.878906 77.183594 47.652344 77.460938 47.652344 C 77.738281 47.652344 77.960938 47.878906 77.960938 48.152344 L 77.960938 66.816406 C 77.960938 72.792969 73.097656 77.652344 67.125 77.652344 Z M 67.125 77.652344 "/>
<path style=" stroke:none;fill-rule:nonzero;fill:rgb(12.156863%,12.941177%,16.862746%);fill-opacity:1;" d="M 77.460938 46.652344 C 77.183594 46.652344 76.960938 46.429688 76.960938 46.152344 L 76.960938 42.152344 C 76.960938 41.878906 77.183594 41.652344 77.460938 41.652344 C 77.738281 41.652344 77.960938 41.878906 77.960938 42.152344 L 77.960938 46.152344 C 77.960938 46.429688 77.738281 46.652344 77.460938 46.652344 Z M 77.460938 40.652344 C 77.183594 40.652344 76.960938 40.429688 76.960938 40.152344 L 76.960938 38.152344 C 76.960938 37.878906 77.183594 37.652344 77.460938 37.652344 C 77.738281 37.652344 77.960938 37.878906 77.960938 38.152344 L 77.960938 40.152344 C 77.960938 40.429688 77.738281 40.652344 77.460938 40.652344 Z M 77.460938 40.652344 "/>
<path style=" stroke:none;fill-rule:nonzero;fill:rgb(100%,100%,100%);fill-opacity:1;" d="M 63.78125 40.023438 C 63.410156 39.070312 62.914062 38.257812 62.105469 37.449219 C 61.296875 36.640625 60.484375 36.144531 59.53125 35.773438 C 58.609375 35.414062 57.542969 35.167969 56.003906 35.101562 C 54.449219 35.035156 53.957031 35.011719 50 35.011719 C 46.042969 35.011719 45.550781 35.023438 43.996094 35.101562 C 42.445312 35.167969 41.390625 35.414062 40.46875 35.773438 C 39.515625 36.144531 38.703125 36.640625 37.894531 37.449219 C 37.085938 38.257812 36.589844 39.070312 36.21875 40.023438 C 35.859375 40.945312 35.613281 42.011719 35.546875 43.554688 C 35.480469 45.105469 35.457031 45.597656 35.457031 49.554688 C 35.457031 53.511719 35.46875 54.007812 35.546875 55.558594 C 35.613281 57.109375 35.859375 58.164062 36.21875 59.085938 C 36.589844 60.039062 37.085938 60.851562 37.894531 61.660156 C 38.703125 62.46875 39.515625 62.964844 40.46875 63.335938 C 41.390625 63.695312 42.457031 63.941406 43.996094 64.007812 C 45.550781 64.074219 46.042969 64.097656 50 64.097656 C 53.957031 64.097656 54.449219 64.089844 56.003906 64.007812 C 57.554688 63.941406 58.609375 63.695312 59.53125 63.335938 C 60.484375 62.964844 61.296875 62.46875 62.105469 61.660156 C 62.914062 60.851562 63.410156 60.039062 63.78125 59.085938 C 64.140625 58.164062 64.386719 57.097656 64.453125 55.558594 C 64.519531 54.007812 64.542969 53.511719 64.542969 49.554688 C 64.542969 45.597656 64.53125 45.105469 64.453125 43.554688 C 64.386719 42.003906 64.140625 40.945312 63.78125 40.023438 Z M 63.78125 40.023438 "/>
<path style=" stroke:none;fill-rule:nonzero;fill:rgb(12.156863%,12.941177%,16.862746%);fill-opacity:1;" d="M 50 64.601562 C 46.050781 64.601562 45.535156 64.578125 43.996094 64.511719 C 42.515625 64.445312 41.378906 64.226562 40.285156 63.800781 C 39.203125 63.382812 38.355469 62.828125 37.539062 62.015625 C 36.726562 61.199219 36.175781 60.351562 35.753906 59.269531 C 35.328125 58.175781 35.109375 57.039062 35.046875 55.578125 C 34.964844 54.023438 34.953125 53.535156 34.953125 49.554688 C 34.953125 45.609375 34.976562 45.09375 35.042969 43.558594 C 35.109375 42.070312 35.328125 40.933594 35.753906 39.84375 C 36.175781 38.757812 36.726562 37.910156 37.539062 37.097656 C 38.355469 36.28125 39.203125 35.730469 40.285156 35.308594 C 41.378906 34.882812 42.515625 34.664062 43.976562 34.601562 C 45.53125 34.523438 46.019531 34.511719 50 34.511719 C 53.945312 34.511719 54.460938 34.535156 55.996094 34.601562 C 57.484375 34.664062 58.621094 34.882812 59.710938 35.308594 C 60.796875 35.730469 61.644531 36.28125 62.457031 37.097656 C 63.273438 37.910156 63.824219 38.757812 64.246094 39.84375 C 64.671875 40.933594 64.890625 42.070312 64.953125 43.53125 C 65.03125 45.089844 65.042969 45.574219 65.042969 49.554688 C 65.042969 53.503906 65.023438 54.023438 64.953125 55.558594 C 64.890625 57.039062 64.671875 58.179688 64.246094 59.269531 C 63.824219 60.351562 63.273438 61.199219 62.457031 62.015625 C 61.644531 62.828125 60.796875 63.382812 59.710938 63.804688 C 58.621094 64.230469 57.480469 64.445312 56.023438 64.511719 C 54.46875 64.589844 53.980469 64.601562 50 64.601562 Z M 50 35.511719 C 46.042969 35.511719 45.5625 35.523438 44.023438 35.601562 C 42.675781 35.660156 41.636719 35.855469 40.648438 36.242188 C 39.699219 36.609375 38.960938 37.09375 38.246094 37.804688 C 37.535156 38.515625 37.054688 39.253906 36.6875 40.203125 C 36.300781 41.1875 36.105469 42.226562 36.046875 43.574219 C 35.976562 45.117188 35.957031 45.632812 35.957031 49.554688 C 35.957031 53.511719 35.96875 53.992188 36.046875 55.53125 C 36.105469 56.878906 36.300781 57.917969 36.6875 58.902344 C 37.054688 59.851562 37.535156 60.59375 38.246094 61.304688 C 38.960938 62.019531 39.699219 62.5 40.648438 62.867188 C 41.632812 63.253906 42.671875 63.449219 44.019531 63.507812 C 45.5625 63.574219 46.074219 63.597656 50 63.597656 C 53.957031 63.597656 54.4375 63.589844 55.976562 63.507812 C 57.324219 63.449219 58.363281 63.253906 59.351562 62.867188 C 60.300781 62.5 61.039062 62.019531 61.753906 61.304688 C 62.464844 60.59375 62.945312 59.851562 63.3125 58.90625 C 63.699219 57.921875 63.894531 56.882812 63.953125 55.535156 C 64.023438 53.992188 64.046875 53.480469 64.046875 49.554688 C 64.046875 45.597656 64.035156 45.113281 63.953125 43.578125 C 63.894531 42.226562 63.699219 41.1875 63.3125 40.203125 C 62.945312 39.253906 62.464844 38.515625 61.753906 37.800781 C 61.039062 37.089844 60.300781 36.609375 59.351562 36.238281 C 58.367188 35.855469 57.328125 35.65625 55.980469 35.597656 C 54.433594 35.53125 53.921875 35.511719 50 35.511719 Z M 50 35.511719 "/>
<path style=" stroke:none;fill-rule:nonzero;fill:rgb(90.196079%,49.411765%,13.333334%);fill-opacity:1;" d="M 49.988281 42.082031 C 45.863281 42.082031 42.515625 45.429688 42.515625 49.554688 C 42.515625 53.683594 45.863281 57.03125 49.988281 57.03125 C 54.113281 57.03125 57.464844 53.683594 57.464844 49.554688 C 57.464844 45.429688 54.113281 42.082031 49.988281 42.082031 Z M 49.988281 42.082031 "/>
<path style=" stroke:none;fill-rule:nonzero;fill:rgb(12.156863%,12.941177%,16.862746%);fill-opacity:1;" d="M 49.988281 57.53125 C 45.59375 57.53125 42.015625 53.953125 42.015625 49.554688 C 42.015625 45.160156 45.59375 41.582031 49.988281 41.582031 C 54.386719 41.582031 57.964844 45.15625 57.964844 49.554688 C 57.964844 53.953125 54.386719 57.53125 49.988281 57.53125 Z M 49.988281 42.582031 C 46.144531 42.582031 43.015625 45.710938 43.015625 49.554688 C 43.015625 53.402344 46.144531 56.53125 49.988281 56.53125 C 53.835938 56.53125 56.964844 53.402344 56.964844 49.554688 C 56.964844 45.710938 53.835938 42.582031 49.988281 42.582031 Z M 49.988281 42.582031 "/>
<path style=" stroke:none;fill-rule:nonzero;fill:rgb(90.196079%,49.411765%,13.333334%);fill-opacity:1;" d="M 58.03125 39.539062 C 57.066406 39.539062 56.289062 40.320312 56.289062 41.28125 C 56.289062 42.242188 57.066406 43.023438 58.03125 43.023438 C 58.992188 43.023438 59.773438 42.242188 59.773438 41.28125 C 59.773438 40.320312 58.992188 39.539062 58.03125 39.539062 Z M 58.03125 39.539062 "/>
<path style=" stroke:none;fill-rule:nonzero;fill:rgb(12.156863%,12.941177%,16.862746%);fill-opacity:1;" d="M 58.03125 43.523438 C 56.792969 43.523438 55.789062 42.519531 55.789062 41.28125 C 55.789062 40.046875 56.792969 39.039062 58.03125 39.039062 C 59.265625 39.039062 60.273438 40.046875 60.273438 41.28125 C 60.273438 42.519531 59.265625 43.523438 58.03125 43.523438 Z M 58.03125 40.039062 C 57.34375 40.039062 56.789062 40.597656 56.789062 41.28125 C 56.789062 41.964844 57.34375 42.523438 58.03125 42.523438 C 58.714844 42.523438 59.273438 41.964844 59.273438 41.28125 C 59.273438 40.597656 58.714844 40.039062 58.03125 40.039062 Z M 58.03125 40.039062 "/>
</g>
</svg>
