<?xml version="1.0" encoding="UTF-8"?>
<svg xmlns="http://www.w3.org/2000/svg" viewBox="0 0 100 100" width="100px" height="100px">
<g id="surface32249195">
<path style=" stroke:none;fill-rule:nonzero;fill:rgb(90.196079%,49.411765%,13.333334%);fill-opacity:1;" d="M 50 16 C 31.222656 16 16 31.222656 16 50 C 16 56.113281 17.621094 61.84375 20.445312 66.800781 L 16.035156 82.730469 C 15.828125 83.480469 16.519531 84.171875 17.265625 83.960938 L 33.199219 79.554688 C 38.15625 82.378906 43.886719 84 50 84 C 68.777344 84 84 68.777344 84 50 C 84 31.222656 68.777344 16 50 16 Z M 50 16 "/>
<path style=" stroke:none;fill-rule:nonzero;fill:rgb(100%,100%,100%);fill-opacity:1;" d="M 50 22 C 34.535156 22 22 34.535156 22 50 C 22 56.121094 23.96875 61.78125 27.304688 66.386719 L 24.890625 75.109375 L 33.613281 72.695312 C 38.222656 76.03125 43.878906 78 50 78 C 65.464844 78 78 65.464844 78 50 C 78 34.535156 65.464844 22 50 22 Z M 50 22 "/>
<path style=" stroke:none;fill-rule:nonzero;fill:rgb(90.196079%,49.411765%,13.333334%);fill-opacity:1;" d="M 41.894531 35.949219 C 41.289062 34.574219 40.644531 34.546875 40.0625 34.527344 C 39.589844 34.507812 39.046875 34.507812 38.507812 34.507812 C 37.972656 34.507812 37.089844 34.710938 36.347656 35.535156 C 35.597656 36.355469 33.5 38.347656 33.5 42.394531 C 33.5 46.4375 36.414062 50.351562 36.816406 50.902344 C 37.222656 51.441406 42.4375 60.015625 50.6875 63.3125 C 57.546875 66.050781 58.941406 65.507812 60.425781 65.371094 C 61.917969 65.230469 65.234375 63.382812 65.90625 61.460938 C 66.582031 59.542969 66.582031 57.898438 66.382812 57.550781 C 66.183594 57.207031 65.640625 57.003906 64.824219 56.589844 C 64.015625 56.175781 60.023438 54.191406 59.277344 53.914062 C 58.535156 53.644531 57.992188 53.507812 57.449219 54.328125 C 56.910156 55.148438 55.351562 57.003906 54.878906 57.550781 C 54.402344 58.101562 53.933594 58.167969 53.117188 57.761719 C 52.308594 57.347656 49.695312 56.480469 46.59375 53.679688 C 44.179688 51.496094 42.550781 48.808594 42.074219 47.984375 C 41.601562 47.164062 42.023438 46.71875 42.429688 46.304688 C 42.796875 45.9375 43.246094 45.34375 43.652344 44.863281 C 44.054688 44.382812 44.1875 44.042969 44.460938 43.492188 C 44.726562 42.945312 44.59375 42.464844 44.394531 42.050781 C 44.195312 41.636719 42.617188 37.574219 41.894531 35.949219 Z M 41.894531 35.949219 "/>
<path style=" stroke:none;fill-rule:nonzero;fill:rgb(12.156863%,12.941177%,16.862746%);fill-opacity:1;" d="M 16.992188 85 C 16.46875 85 15.96875 84.796875 15.585938 84.414062 C 15.070312 83.898438 14.878906 83.167969 15.074219 82.464844 L 19.371094 66.929688 C 16.511719 61.765625 15 55.917969 15 50 C 15 30.699219 30.699219 15 50 15 C 69.300781 15 85 30.699219 85 50 C 85 69.300781 69.300781 85 50 85 C 44.082031 85 38.234375 83.488281 33.070312 80.628906 L 17.535156 84.925781 C 17.355469 84.976562 17.171875 85 16.992188 85 Z M 33.199219 78.554688 C 33.371094 78.554688 33.542969 78.601562 33.695312 78.6875 C 38.648438 81.507812 44.285156 83 50 83 C 68.195312 83 83 68.195312 83 50 C 83 31.804688 68.195312 17 50 17 C 31.804688 17 17 31.804688 17 50 C 17 55.714844 18.492188 61.351562 21.3125 66.304688 C 21.445312 66.535156 21.480469 66.808594 21.40625 67.066406 L 17 83 L 32.933594 78.59375 C 33.023438 78.566406 33.113281 78.554688 33.199219 78.554688 Z M 33.199219 78.554688 "/>
<path style=" stroke:none;fill-rule:nonzero;fill:rgb(12.156863%,12.941177%,16.862746%);fill-opacity:1;" d="M 58.769531 66.007812 C 57.355469 66.007812 55.15625 65.636719 50.503906 63.777344 C 45.515625 61.785156 40.570312 57.40625 36.589844 51.457031 C 36.503906 51.328125 36.445312 51.242188 36.414062 51.203125 C 35.371094 49.773438 33 46.132812 33 42.394531 C 33 38.394531 34.984375 36.265625 35.832031 35.355469 L 35.976562 35.199219 C 36.945312 34.121094 38.066406 34.007812 38.507812 34.007812 C 39.054688 34.007812 39.605469 34.007812 40.085938 34.027344 C 40.855469 34.054688 41.671875 34.210938 42.351562 35.746094 C 42.78125 36.710938 43.492188 38.488281 44.066406 39.917969 C 44.429688 40.824219 44.769531 41.679688 44.847656 41.835938 C 45.054688 42.269531 45.289062 42.933594 44.910156 43.714844 L 44.789062 43.964844 C 44.578125 44.394531 44.414062 44.734375 44.035156 45.183594 C 43.902344 45.34375 43.765625 45.511719 43.628906 45.679688 C 43.34375 46.03125 43.046875 46.394531 42.78125 46.660156 C 42.382812 47.066406 42.230469 47.25 42.507812 47.734375 C 43.078125 48.722656 44.644531 51.242188 46.929688 53.308594 C 49.457031 55.59375 51.617188 56.542969 52.777344 57.054688 C 53.015625 57.160156 53.207031 57.246094 53.347656 57.316406 C 54.027344 57.65625 54.21875 57.546875 54.5 57.226562 C 54.996094 56.652344 56.519531 54.832031 57.035156 54.054688 C 57.824219 52.851562 58.800781 53.210938 59.445312 53.445312 C 60.265625 53.75 64.417969 55.820312 65.050781 56.144531 L 65.492188 56.363281 C 66.121094 56.671875 66.574219 56.890625 66.8125 57.300781 C 67.140625 57.863281 67.042969 59.738281 66.378906 61.625 C 65.605469 63.824219 62.035156 65.722656 60.472656 65.871094 C 60.332031 65.886719 60.195312 65.898438 60.050781 65.917969 C 59.675781 65.960938 59.269531 66.007812 58.769531 66.007812 Z M 38.535156 35.007812 C 38.285156 35.007812 37.46875 35.035156 36.71875 35.867188 L 36.5625 36.039062 C 35.730469 36.929688 34 38.789062 34 42.394531 C 34 45.839844 36.234375 49.261719 37.195312 50.578125 C 37.25 50.648438 37.320312 50.75 37.421875 50.898438 C 41.292969 56.6875 46.070312 60.929688 50.871094 62.851562 C 56.949219 65.273438 58.605469 65.078125 59.9375 64.921875 C 60.085938 64.902344 60.234375 64.886719 60.382812 64.875 C 61.671875 64.75 64.832031 63.015625 65.4375 61.292969 C 66.0625 59.519531 66.050781 58.046875 65.945312 57.789062 C 65.867188 57.65625 65.492188 57.472656 65.058594 57.261719 L 64.601562 57.035156 C 63.65625 56.554688 59.796875 54.640625 59.101562 54.382812 C 58.382812 54.121094 58.195312 54.109375 57.867188 54.601562 C 57.285156 55.488281 55.636719 57.441406 55.257812 57.878906 C 54.449219 58.8125 53.570312 58.546875 52.898438 58.207031 C 52.765625 58.140625 52.589844 58.0625 52.375 57.96875 C 51.25 57.472656 48.910156 56.441406 46.261719 54.046875 C 43.867188 51.886719 42.234375 49.261719 41.644531 48.230469 C 40.972656 47.070312 41.691406 46.34375 42.074219 45.953125 C 42.316406 45.714844 42.585938 45.382812 42.855469 45.050781 C 42.996094 44.875 43.136719 44.699219 43.273438 44.539062 C 43.570312 44.183594 43.699219 43.921875 43.894531 43.523438 L 44.019531 43.269531 C 44.164062 42.96875 44.144531 42.675781 43.949219 42.269531 C 43.863281 42.089844 43.597656 41.433594 43.140625 40.289062 C 42.570312 38.867188 41.859375 37.097656 41.441406 36.152344 L 41.441406 36.148438 C 40.957031 35.058594 40.554688 35.042969 40.046875 35.027344 C 39.582031 35.007812 39.0625 35.007812 38.535156 35.007812 Z M 38.535156 35.007812 "/>
<path style=" stroke:none;fill-rule:nonzero;fill:rgb(12.156863%,12.941177%,16.862746%);fill-opacity:1;" d="M 50 78 C 44.304688 78 38.824219 76.296875 34.140625 73.070312 L 25.023438 75.589844 C 24.847656 75.640625 24.664062 75.589844 24.535156 75.464844 C 24.410156 75.335938 24.359375 75.148438 24.410156 74.976562 L 26.929688 65.859375 C 23.703125 61.175781 22 55.699219 22 50 C 22 34.5625 34.5625 22 50 22 C 52.574219 22 55.144531 22.355469 57.636719 23.0625 C 57.902344 23.136719 58.058594 23.414062 57.980469 23.679688 C 57.90625 23.945312 57.628906 24.101562 57.363281 24.027344 C 54.960938 23.34375 52.480469 23 50 23 C 35.113281 23 23 35.113281 23 50 C 23 55.570312 24.6875 60.921875 27.882812 65.480469 C 27.96875 65.601562 27.996094 65.753906 27.957031 65.898438 L 25.605469 74.394531 L 34.101562 72.042969 C 34.242188 72 34.398438 72.03125 34.519531 72.113281 C 39.078125 75.3125 44.429688 77 50 77 C 64.886719 77 77 64.886719 77 50 C 77 42.820312 74.210938 36.058594 69.144531 30.964844 C 68.953125 30.769531 68.953125 30.449219 69.148438 30.257812 C 69.34375 30.0625 69.660156 30.0625 69.855469 30.257812 C 75.105469 35.542969 78 42.554688 78 50 C 78 65.4375 65.4375 78 50 78 Z M 50 78 "/>
<path style=" stroke:none;fill-rule:nonzero;fill:rgb(12.156863%,12.941177%,16.862746%);fill-opacity:1;" d="M 63.5 26.546875 C 63.414062 26.546875 63.332031 26.523438 63.253906 26.480469 C 62.289062 25.9375 61.300781 25.453125 60.308594 25.042969 C 60.054688 24.9375 59.933594 24.644531 60.039062 24.390625 C 60.140625 24.136719 60.4375 24.011719 60.691406 24.117188 C 61.71875 24.546875 62.746094 25.046875 63.746094 25.609375 C 63.984375 25.746094 64.070312 26.050781 63.933594 26.292969 C 63.84375 26.453125 63.675781 26.546875 63.5 26.546875 Z M 67.5 29.285156 C 67.386719 29.285156 67.273438 29.25 67.183594 29.171875 C 66.5625 28.660156 65.902344 28.164062 65.21875 27.699219 C 64.988281 27.542969 64.933594 27.230469 65.085938 27.003906 C 65.242188 26.773438 65.554688 26.71875 65.78125 26.871094 C 66.488281 27.355469 67.175781 27.871094 67.816406 28.398438 C 68.03125 28.574219 68.0625 28.890625 67.886719 29.105469 C 67.785156 29.226562 67.644531 29.285156 67.5 29.285156 Z M 67.5 29.285156 "/>
</g>
</svg>
